<?xml version="1.0" standalone="no"?>
<!DOCTYPE svg PUBLIC "-//W3C//DTD SVG 20010904//EN"
 "http://www.w3.org/TR/2001/REC-SVG-20010904/DTD/svg10.dtd">
<svg version="1.0" xmlns="http://www.w3.org/2000/svg"
 width="739.000000pt" height="739.000000pt" viewBox="0 0 739.000000 739.000000"
 preserveAspectRatio="xMidYMid meet">
<metadata>
Created by potrace 1.11, written by Peter Selinger 2001-2013
</metadata>
<g transform="translate(0.000000,739.000000) scale(0.100000,-0.100000)"
fill="#000000" stroke="none">
<path d="M2608 5204 c-335 -53 -574 -259 -679 -588 -11 -33 -22 -73 -25 -90
-3 -16 -6 -32 -8 -35 -7 -12 -19 -149 -20 -236 -7 -490 210 -836 599 -958 185
-58 435 -54 625 9 56 19 169 75 200 100 160 128 262 273 313 445 44 148 51
197 51 374 0 156 -9 238 -40 355 -71 264 -246 469 -487 568 -143 60 -362 83
-529 56z m291 -419 c46 -16 103 -54 134 -90 51 -58 103 -177 113 -258 3 -23 7
-53 10 -67 5 -33 5 -203 -1 -261 -29 -294 -158 -443 -385 -442 -109 0 -180 26
-245 90 -49 48 -110 161 -120 225 -3 18 -10 58 -15 88 -9 56 -6 296 5 360 10
60 45 163 70 205 47 81 133 146 219 165 48 11 166 3 215 -15z"/>
<path d="M4429 5204 c-386 -57 -656 -342 -719 -760 -13 -85 -16 -291 -6 -374
44 -341 203 -593 454 -719 299 -150 720 -122 970 64 136 101 213 203 293 390
15 37 39 131 53 209 13 73 15 361 3 411 -2 11 -8 43 -12 70 -15 103 -68 240
-130 335 -190 293 -523 431 -906 374z m236 -406 c135 -22 237 -125 285 -288
51 -173 39 -473 -25 -626 -39 -94 -131 -181 -219 -206 -59 -17 -163 -17 -221
-1 -186 53 -278 228 -279 533 -1 159 6 221 34 311 46 151 123 236 246 272 58
17 101 18 179 5z"/>
<path d="M2162 2203 l0 -1025 401 5 c426 5 440 6 582 59 236 87 424 276 513
516 33 90 40 120 60 248 10 60 8 349 -2 414 -67 418 -324 701 -712 786 -66 14
-143 17 -461 19 l-381 3 0 -1025z m783 662 c159 -46 253 -140 310 -309 33
-100 40 -159 40 -356 0 -195 -6 -245 -41 -348 -45 -136 -122 -230 -229 -282
-83 -40 -98 -42 -281 -47 l-160 -5 2 684 c1 375 2 683 3 684 0 0 68 0 149 -1
106 -2 165 -7 207 -20z"/>
<path d="M3835 2206 l1 -1021 454 0 c250 0 482 3 515 7 294 37 497 203 540
443 13 67 12 206 0 265 -27 130 -117 242 -242 302 l-71 34 46 24 c98 51 189
168 221 285 17 63 7 250 -17 316 -66 184 -232 305 -472 345 -25 4 -56 9 -70
11 -14 3 -223 6 -465 8 l-440 3 0 -1022z m832 670 c89 -11 161 -56 193 -120
46 -95 37 -218 -22 -290 -63 -76 -141 -96 -386 -96 -101 -1 -186 1 -188 3 -6
5 -6 496 0 505 6 10 323 8 403 -2z m15 -810 c158 -11 243 -96 251 -251 5 -93
-14 -154 -67 -208 -73 -76 -112 -85 -378 -86 l-228 -2 0 275 0 275 88 3 c103
4 241 1 334 -6z"/>
</g>
</svg>
