<svg width="58" height="97" viewBox="0 0 58 97" fill="none" xmlns="http://www.w3.org/2000/svg">
<path d="M5.54688 42.0859C5.54688 39.5703 6.03125 37.3281 7 35.3594C7.96875 33.3906 9.35938 31.8672 11.1719 30.7891C13 29.7109 15.1172 29.1719 17.5234 29.1719C20.9453 29.1719 23.7344 30.2188 25.8906 32.3125C28.0625 34.4062 29.2734 37.25 29.5234 40.8438L29.5703 42.5781C29.5703 46.4688 28.4844 49.5938 26.3125 51.9531C24.1406 54.2969 21.2266 55.4688 17.5703 55.4688C13.9141 55.4688 10.9922 54.2969 8.80469 51.9531C6.63281 49.6094 5.54688 46.4219 5.54688 42.3906V42.0859ZM12.3203 42.5781C12.3203 44.9844 12.7734 46.8281 13.6797 48.1094C14.5859 49.375 15.8828 50.0078 17.5703 50.0078C19.2109 50.0078 20.4922 49.3828 21.4141 48.1328C22.3359 46.8672 22.7969 44.8516 22.7969 42.0859C22.7969 39.7266 22.3359 37.8984 21.4141 36.6016C20.4922 35.3047 19.1953 34.6562 17.5234 34.6562C15.8672 34.6562 14.5859 35.3047 13.6797 36.6016C12.7734 37.8828 12.3203 39.875 12.3203 42.5781Z" fill="#F2C94C"/>
<path d="M30.5469 42.0859C30.5469 39.5703 31.0312 37.3281 32 35.3594C32.9688 33.3906 34.3594 31.8672 36.1719 30.7891C38 29.7109 40.1172 29.1719 42.5234 29.1719C45.9453 29.1719 48.7344 30.2188 50.8906 32.3125C53.0625 34.4062 54.2734 37.25 54.5234 40.8438L54.5703 42.5781C54.5703 46.4688 53.4844 49.5938 51.3125 51.9531C49.1406 54.2969 46.2266 55.4688 42.5703 55.4688C38.9141 55.4688 35.9922 54.2969 33.8047 51.9531C31.6328 49.6094 30.5469 46.4219 30.5469 42.3906V42.0859ZM37.3203 42.5781C37.3203 44.9844 37.7734 46.8281 38.6797 48.1094C39.5859 49.375 40.8828 50.0078 42.5703 50.0078C44.2109 50.0078 45.4922 49.3828 46.4141 48.1328C47.3359 46.8672 47.7969 44.8516 47.7969 42.0859C47.7969 39.7266 47.3359 37.8984 46.4141 36.6016C45.4922 35.3047 44.1953 34.6562 42.5234 34.6562C40.8672 34.6562 39.5859 35.3047 38.6797 36.6016C37.7734 37.8828 37.3203 39.875 37.3203 42.5781Z" fill="#EB5757"/>
<path d="M17 56.2852L42.5937 56.2852L42.5937 64.1602C42.5937 66.4102 42.084 68.4199 41.0645 70.1895C40.0566 71.9707 38.6152 73.3594 36.7402 74.3555C34.877 75.3516 32.7559 75.8496 30.377 75.8496L29.1992 75.8496C26.8203 75.8496 24.7051 75.3574 22.8535 74.373C21.002 73.4004 19.5664 72.0234 18.5469 70.2422C17.5273 68.4609 17.0117 66.4512 17 64.2129L17 56.2852ZM38.3223 61.5586L21.2363 61.5586L21.2363 64.1074C21.2363 66.1699 21.9102 67.7461 23.2578 68.8359C24.6055 69.9258 26.5332 70.4824 29.041 70.5059L30.3945 70.5059C32.9961 70.5059 34.9648 69.9668 36.3008 68.8887C37.6484 67.8105 38.3223 66.2344 38.3223 64.1602L38.3223 61.5586Z" fill="#2D9CDB"/>
<path d="M17 76.2852L42.5937 76.2852L42.5937 85.25C42.5937 88.3555 41.9961 90.7109 40.8008 92.3164C39.6172 93.9219 37.877 94.7246 35.5801 94.7246C34.3262 94.7246 33.2187 94.4023 32.2578 93.7578C31.3086 93.1133 30.6113 92.2168 30.166 91.0684C29.8379 92.3809 29.1758 93.4121 28.1797 94.1621C27.1836 94.9238 25.9648 95.3047 24.5234 95.3047C22.0625 95.3047 20.1992 94.5195 18.9336 92.9492C17.668 91.3789 17.0234 89.1406 17 86.2344L17 76.2852ZM28.1445 81.5586L21.2363 81.5586L21.2363 86.0762C21.2363 87.3184 21.5293 88.2852 22.1152 88.9766C22.7129 89.6797 23.5332 90.0312 24.5762 90.0312C26.9199 90.0312 28.1094 88.8184 28.1445 86.3926L28.1445 81.5586ZM31.8711 81.5586L31.8711 85.4609C31.918 88.1211 32.9785 89.4512 35.0527 89.4512C36.2129 89.4512 37.0449 89.1113 37.5488 88.4316C38.0645 87.7637 38.3223 86.7031 38.3223 85.25L38.3223 81.5586L31.8711 81.5586Z" fill="#27AE60"/>
</svg>
